<svg width="2579" height="2779" viewBox="0 0 2579 2779" fill="none" xmlns="http://www.w3.org/2000/svg">
<path d="M400.666 1034.45L2264.66 1030.05L2265.8 1511.8L401.803 1516.2L400.666 1034.45Z" fill="#37715B"/>
<path d="M1489.18 1343.79C1363.48 1354.82 1219.43 1526.02 1213.13 1644.62C1206.19 1775.61 1489.82 1886.13 1533.92 1873.77C1578.02 1861.41 1359.08 1655.65 1441.37 1570.16C1532.74 1475.29 1729.74 1566.03 1746.64 1515.32C1763.28 1465.42 1634.48 1331.05 1489.18 1343.79Z" stroke="#FFE3B9" stroke-opacity="0.46" stroke-width="0.2643" stroke-miterlimit="10"/>
<path d="M1464.48 1315.5C1325.04 1311.32 1165 1525.15 1164.8 1660.6C1164.61 1814.03 1485.97 1905.46 1539.71 1905.97C1586.02 1906.43 1390.63 1675.44 1477.17 1566.19C1571.15 1447.48 1758.78 1507.76 1759.82 1470.63C1760.9 1430.81 1628.04 1320.56 1464.48 1315.5Z" stroke="#FFE3B9" stroke-opacity="0.46" stroke-width="0.2643" stroke-miterlimit="10"/>
<path d="M1439.76 1287.25C1286.85 1267.78 1110.68 1524.3 1116.49 1676.55C1123.12 1852.61 1479.93 1923.28 1545.48 1938.19C1593.18 1948.93 1422.34 1695.49 1512.96 1562.14C1609.63 1419.92 1792.63 1449.59 1772.9 1426.16C1763.78 1396.56 1622.04 1310.42 1439.76 1287.25Z" stroke="#FFE3B9" stroke-opacity="0.46" stroke-width="0.2643" stroke-miterlimit="10"/>
<path d="M1415.1 1258.87C1248.66 1224.46 1056.5 1523.37 1068.29 1692.48C1082.01 1890.91 1467.8 1965.45 1551.39 1970.37C1603.75 1973.44 1454.29 1715.58 1548.83 1558.16C1648.34 1392.51 1824.16 1391.37 1786.13 1381.61C1764.03 1362.11 1615.92 1300.45 1415.1 1258.87Z" stroke="#FFE3B9" stroke-opacity="0.46" stroke-width="0.2643" stroke-miterlimit="10"/>
<path d="M1390.36 1230.67C1210.4 1181.46 1002.33 1522.58 1019.82 1708.51C1040.6 1929.45 1457.14 1983.24 1557.04 2002.61C1613.11 2013.45 1486.04 1735.84 1584.49 1554.24C1686.81 1365.14 1855.19 1342.55 1799.12 1337.09C1763.21 1333.57 1609.79 1290.66 1390.36 1230.67Z" stroke="#FFE3B9" stroke-opacity="0.46" stroke-width="0.2643" stroke-miterlimit="10"/>
<path d="M1365.69 1202.4C1172.12 1138.52 948.222 1521.75 971.511 1724.45C999.45 1967.93 1462.37 1968.09 1562.79 2034.97C1614.86 2069.57 1518 1756.23 1620.24 1550.36C1725.76 1338.05 1888.3 1283.29 1812.17 1292.68C1764.87 1298.38 1603.66 1280.98 1365.69 1202.4Z" stroke="#FFE3B9" stroke-opacity="0.46" stroke-width="0.2643" stroke-miterlimit="10"/>
<path d="M1316.26 1145.85C1095.49 1052.75 840.207 1520.03 874.814 1756.39C917.174 2044.81 1453.8 1994.56 1574.37 2099.25C1630.92 2148.33 1582.13 1796.62 1691.82 1542.25C1803.49 1283.3 1951.93 1164.49 1838.43 1203.45C1766.23 1228.19 1591.21 1261.81 1316.26 1145.85Z" stroke="#FFE3B9" stroke-opacity="0.46" stroke-width="0.2643" stroke-miterlimit="10"/>
<path d="M1291.57 1117.57C1057.15 1009.93 786.097 1519.13 826.487 1772.37C876.073 2083.26 1450.16 2007.58 1580.14 2131.51C1639.2 2187.84 1614.22 1816.97 1727.58 1538.29C1842.39 1256.05 1983.33 1105.53 1851.54 1158.91C1766.55 1193.29 1585.02 1252.34 1291.57 1117.57Z" stroke="#FFE3B9" stroke-opacity="0.46" stroke-width="0.2643" stroke-miterlimit="10"/>
<path d="M1266.85 1089.31C1018.58 967.197 732.089 1518.23 778.17 1788.32C834.933 2121.63 1446.92 2020.38 1585.94 2163.67C1647.66 2227.29 1646.36 1837.21 1763.35 1534.27C1881.36 1228.75 2014.75 1046.66 1864.64 1114.31C1766.79 1158.46 1578.74 1242.89 1266.85 1089.31Z" stroke="#FFE3B9" stroke-opacity="0.46" stroke-width="0.2643" stroke-miterlimit="10"/>
<path d="M1242.15 1061.02C980.363 924.359 678.022 1517.31 729.84 1804.3C793.968 2160.11 1444.01 2033.29 1591.71 2195.9C1656.2 2266.81 1678.54 1857.52 1799.15 1530.3C1920.35 1201.47 2045.97 987.883 1877.75 1069.77C1766.97 1123.68 1572.41 1233.47 1242.15 1061.02Z" stroke="#FFE3B9" stroke-opacity="0.46" stroke-width="0.2643" stroke-miterlimit="10"/>
<path d="M1217.44 1032.73C941.96 881.586 624.138 1516.47 681.508 1820.27C752.952 2198.53 1441.01 2046.05 1597.52 2228.03C1664.78 2306.31 1710.68 1877.85 1834.95 1526.22C1959.37 1174.12 2077.28 929.105 1890.9 1025.14C1767.17 1088.95 1566.08 1224.04 1217.44 1032.73Z" stroke="#FFE3B9" stroke-opacity="0.46" stroke-width="0.2643" stroke-miterlimit="10"/>
<path d="M1192.73 1004.48C903.518 838.833 570.11 1515.71 633.196 1836.22C711.943 2236.96 1438.29 2058.89 1603.3 2260.33C1673.45 2345.96 1742.93 1898.11 1870.73 1522.31C1998.53 1146.5 2108.5 870.519 1904.03 980.583C1767.33 1054.23 1559.72 1214.67 1192.73 1004.48Z" stroke="#FFE3B9" stroke-opacity="0.46" stroke-width="0.2643" stroke-miterlimit="10"/>
<path d="M1168.03 976.189C865.073 796.078 516.207 1514.68 584.836 1852.19C670.873 2275.5 1435.64 2071.89 1609.05 2292.54C1682.13 2385.58 1775.12 1918.39 1906.49 1518.32C2037.37 1119.64 2139.75 811.944 1917.08 936.097C1767.47 1019.54 1553.38 1205.28 1168.03 976.189Z" stroke="#FFE3B9" stroke-opacity="0.46" stroke-width="0.2643" stroke-miterlimit="10"/>
<path d="M1143.32 947.9C826.62 753.321 462.894 1513.65 536.592 1868.2C630.837 2313.66 1433.31 2084.65 1614.92 2324.78C1690.92 2425.26 1807.44 1938.72 1942.34 1514.37C2076.48 1092.41 2171.09 753.379 1930.29 891.574C1767.6 984.857 1546.94 1195.91 1143.32 947.9Z" stroke="#FFE3B9" stroke-opacity="0.46" stroke-width="0.2643" stroke-miterlimit="10"/>
<path d="M1118.61 919.645C788.164 710.599 408.892 1512.76 488.202 1884.08C589.63 2352.11 1430.84 2097.27 1620.63 2356.9C1699.63 2464.82 1839.61 1958.91 1978.07 1510.21C2115.52 1064.96 2202.3 694.669 1943.38 846.845C1767.74 950.172 1540.56 1186.53 1118.61 919.645Z" stroke="#FFE3B9" stroke-opacity="0.46" stroke-width="0.2643" stroke-miterlimit="10"/>
<path d="M1069.2 863.071C710.775 625.764 300.791 1511 391.528 1916.07C507.465 2428.93 1426 2123.25 1632.2 2421.4C1717.16 2544.25 1904.67 1999.73 2049.59 1502.34C2194.19 1010.71 2264.71 577.707 1969.52 757.859C1767.99 880.864 1527.16 1168.62 1069.2 863.071Z" stroke="#FFE3B9" stroke-opacity="0.46" stroke-width="0.2643" stroke-miterlimit="10"/>
<path d="M1044.48 834.81C672.381 582.881 246.81 1510.12 343.193 1932.04C466.339 2467.34 1423.69 2136.13 1637.97 2453.62C1725.95 2583.96 1936.8 2019.9 2085.35 1498.35C2233.08 983.382 2295.97 519.174 1982.62 713.323C1767.95 846.317 1520.84 1159.08 1044.48 834.81Z" stroke="#FFE3B9" stroke-opacity="0.46" stroke-width="0.2643" stroke-miterlimit="10"/>
<path d="M1019.78 806.524C633.993 540.003 192.729 1509.23 294.878 1947.99C425.293 2505.67 1421.44 2149.09 1643.76 2485.81C1734.77 2623.68 1969.02 2040.3 2121.07 1494.46C2271.79 956.079 2326.81 460.185 1995.71 668.853C1767.97 811.163 1514.54 1149.52 1019.78 806.524Z" stroke="#FFE3B9" stroke-opacity="0.46" stroke-width="0.2643" stroke-miterlimit="10"/>
<path d="M995.083 778.237C595.651 497.032 138.574 1508.34 246.551 1963.97C384.163 2544.19 1419.19 2162.04 1649.59 2517.91C1743.66 2663.33 2001.03 2060.34 2156.97 1490.26C2310.9 928.702 2358.27 401.895 2008.87 624.197C1768.21 776.749 1508.23 1140.13 995.083 778.237Z" stroke="#FFE3B9" stroke-opacity="0.46" stroke-width="0.2643" stroke-miterlimit="10"/>
</svg>
