<svg width="5998" height="6463" viewBox="0 0 5998 6463" fill="none" xmlns="http://www.w3.org/2000/svg">
<path d="M5065.28 4057.15L730.135 4067.38L727.491 2946.97L5062.64 2936.74L5065.28 4057.15Z" fill="#37715B"/>
<path d="M2533.69 3337.71C2826.04 3312.06 3161.05 2913.89 3175.71 2638.05C3191.85 2333.42 2532.21 2076.37 2429.64 2105.12C2327.06 2133.87 2836.27 2612.41 2644.88 2811.23C2432.39 3031.88 1974.21 2820.84 1934.9 2938.79C1896.21 3054.84 2195.77 3367.34 2533.69 3337.71Z" stroke="#FFE3B9" stroke-opacity="0.46" stroke-width="0.2643" stroke-miterlimit="10"/>
<path d="M2591.14 3403.5C2915.44 3413.23 3287.64 2915.91 3288.11 2600.89C3288.55 2244.05 2541.15 2031.42 2416.18 2030.24C2308.48 2029.16 2762.88 2566.37 2561.63 2820.47C2343.06 3096.56 1906.67 2956.37 1904.25 3042.72C1901.74 3135.33 2210.75 3391.75 2591.14 3403.5Z" stroke="#FFE3B9" stroke-opacity="0.46" stroke-width="0.2643" stroke-miterlimit="10"/>
<path d="M2648.62 3469.21C3004.27 3514.5 3413.99 2917.89 3400.48 2563.8C3385.06 2154.34 2555.2 1989.97 2402.75 1955.29C2291.82 1930.33 2689.15 2519.74 2478.39 2829.89C2253.56 3160.65 1827.96 3091.65 1873.83 3146.14C1895.06 3214.98 2224.7 3415.33 2648.62 3469.21Z" stroke="#FFE3B9" stroke-opacity="0.46" stroke-width="0.2643" stroke-miterlimit="10"/>
<path d="M2705.98 3535.22C3093.08 3615.23 3539.98 2920.07 3512.56 2526.75C3480.67 2065.25 2583.41 1891.91 2389.01 1880.46C2267.22 1873.32 2614.85 2473.03 2394.96 2839.14C2163.52 3224.4 1754.62 3227.04 1843.06 3249.76C1894.47 3295.09 2238.93 3438.51 2705.98 3535.22Z" stroke="#FFE3B9" stroke-opacity="0.46" stroke-width="0.2643" stroke-miterlimit="10"/>
<path d="M2763.53 3600.79C3182.06 3715.25 3665.98 2921.89 3625.29 2489.48C3576.98 1975.62 2608.2 1850.52 2375.87 1805.47C2245.46 1780.27 2541 2425.91 2312.03 2848.27C2074.05 3288.07 1682.45 3340.59 1812.86 3353.29C1896.37 3361.48 2253.18 3461.27 2763.53 3600.79Z" stroke="#FFE3B9" stroke-opacity="0.46" stroke-width="0.2643" stroke-miterlimit="10"/>
<path d="M2820.9 3666.55C3271.09 3815.12 3791.81 2923.82 3737.65 2452.39C3672.67 1886.14 2596.04 1885.76 2362.49 1730.2C2241.4 1649.74 2466.67 2378.48 2228.87 2857.29C1983.48 3351.05 1605.44 3478.41 1782.5 3456.57C1892.52 3443.33 2267.45 3483.78 2820.9 3666.55Z" stroke="#FFE3B9" stroke-opacity="0.46" stroke-width="0.2643" stroke-miterlimit="10"/>
<path d="M2935.85 3798.06C3449.31 4014.59 4043.03 2927.81 3962.54 2378.11C3864.02 1707.33 2615.98 1824.2 2335.56 1580.71C2204.04 1466.56 2317.53 2284.54 2062.4 2876.14C1802.7 3478.4 1457.45 3754.72 1721.44 3664.11C1889.35 3606.56 2296.39 3528.36 2935.85 3798.06Z" stroke="#FFE3B9" stroke-opacity="0.46" stroke-width="0.2643" stroke-miterlimit="10"/>
<path d="M2993.29 3863.85C3538.48 4114.17 4168.87 2929.92 4074.94 2340.94C3959.61 1617.89 2624.45 1793.91 2322.15 1505.69C2184.78 1374.67 2242.88 2237.23 1979.25 2885.34C1712.21 3541.77 1384.44 3891.85 1690.95 3767.68C1888.61 3687.74 2310.79 3550.4 2993.29 3863.85Z" stroke="#FFE3B9" stroke-opacity="0.46" stroke-width="0.2643" stroke-miterlimit="10"/>
<path d="M3050.78 3929.56C3628.18 4213.56 4294.48 2932 4187.31 2303.85C4055.29 1528.67 2631.98 1764.14 2308.66 1430.88C2165.11 1282.93 2168.14 2190.14 1896.04 2894.69C1621.6 3605.26 1311.37 4028.76 1660.47 3871.43C1888.05 3768.74 2325.41 3572.37 3050.78 3929.56Z" stroke="#FFE3B9" stroke-opacity="0.46" stroke-width="0.2643" stroke-miterlimit="10"/>
<path d="M3108.23 3995.35C3717.06 4313.19 4420.23 2934.15 4299.71 2266.7C4150.57 1439.17 2638.75 1734.12 2295.24 1355.94C2145.25 1191.02 2093.29 2142.91 1812.79 2903.94C1530.91 3668.71 1238.74 4165.45 1629.98 3975C1887.63 3849.62 2340.12 3594.29 3108.23 3995.35Z" stroke="#FFE3B9" stroke-opacity="0.46" stroke-width="0.2643" stroke-miterlimit="10"/>
<path d="M3165.68 4061.15C3806.38 4412.67 4545.54 2936.1 4412.12 2229.54C4245.96 1349.81 2645.71 1704.45 2281.71 1281.21C2125.3 1099.16 2018.55 2095.64 1729.51 2913.44C1440.16 3732.31 1165.94 4302.15 1599.4 4078.79C1887.17 3930.41 2354.85 3616.22 3165.68 4061.15Z" stroke="#FFE3B9" stroke-opacity="0.46" stroke-width="0.2643" stroke-miterlimit="10"/>
<path d="M3223.16 4126.86C3895.78 4512.1 4671.2 2937.86 4524.48 2192.45C4341.34 1260.45 2652.06 1674.58 2268.27 1206.08C2105.14 1006.93 1943.55 2048.52 1646.32 2922.53C1349.09 3796.55 1093.33 4438.41 1568.87 4182.43C1886.8 4011.15 2369.63 3638 3223.16 4126.86Z" stroke="#FFE3B9" stroke-opacity="0.46" stroke-width="0.2643" stroke-miterlimit="10"/>
<path d="M3280.6 4192.65C3985.2 4611.54 4796.56 2940.27 4636.95 2155.32C4436.85 1170.8 2658.22 1644.36 2254.91 1131.17C2084.95 914.787 1868.66 2001.36 1563.14 2931.81C1258.76 3859.03 1020.65 4574.64 1538.52 4285.89C1886.48 4091.82 2384.38 3659.85 3280.6 4192.65Z" stroke="#FFE3B9" stroke-opacity="0.46" stroke-width="0.2643" stroke-miterlimit="10"/>
<path d="M3338.07 4258.44C4074.63 4710.98 4920.55 2942.66 4749.15 2118.06C4529.96 1082.05 2663.63 1614.67 2241.25 1056.2C2064.5 822.511 1793.5 1954.07 1479.76 2940.99C1167.8 3922.35 947.744 4710.85 1507.8 4389.44C1886.17 4172.49 2399.36 3681.64 3338.07 4258.44Z" stroke="#FFE3B9" stroke-opacity="0.46" stroke-width="0.2643" stroke-miterlimit="10"/>
<path d="M3395.54 4324.16C4164.06 4810.34 5046.15 2944.74 4861.7 2081.14C4625.8 992.633 2669.38 1585.31 2227.96 981.494C2044.24 730.505 1718.69 1907.12 1396.66 2950.65C1077.01 3986.19 875.176 4847.39 1477.35 4493.47C1885.83 4253.16 2414.21 3703.45 3395.54 4324.16Z" stroke="#FFE3B9" stroke-opacity="0.46" stroke-width="0.2643" stroke-miterlimit="10"/>
<path d="M3510.44 4455.73C4344.05 5007.64 5297.56 2948.82 5086.53 2006.74C4816.89 813.969 2680.64 1524.9 2201.07 831.49C2003.46 545.757 1567.37 1812.17 1230.33 2968.96C894.039 4112.36 730.022 5119.41 1416.55 4700.42C1885.25 4414.35 2445.35 3745.11 3510.44 4455.73Z" stroke="#FFE3B9" stroke-opacity="0.46" stroke-width="0.2643" stroke-miterlimit="10"/>
<path d="M3567.94 4521.46C4433.34 5107.38 5423.11 2950.88 5198.95 1969.59C4912.54 724.646 2686 1494.93 2187.65 756.553C1983.04 453.414 1492.65 1765.26 1147.16 2978.24C803.579 4175.92 657.321 5255.54 1386.07 4804C1885.36 4494.7 2460.06 3767.29 3567.94 4521.46Z" stroke="#FFE3B9" stroke-opacity="0.46" stroke-width="0.2643" stroke-miterlimit="10"/>
<path d="M3625.38 4587.24C4522.62 5207.1 5548.88 2952.95 5311.31 1932.5C5008 635.495 2691.24 1464.81 2174.19 681.676C1962.53 361.026 1417.71 1717.82 1064.08 2987.3C713.564 4239.42 585.597 5392.73 1355.65 4907.43C1885.31 4576.46 2474.71 3789.54 3625.38 4587.24Z" stroke="#FFE3B9" stroke-opacity="0.46" stroke-width="0.2643" stroke-miterlimit="10"/>
<path d="M3682.83 4653.03C4611.8 5307.04 5674.84 2955.02 5423.71 1895.34C5103.66 545.91 2696.48 1434.69 2160.62 607.016C1941.84 268.822 1343.27 1671.21 980.591 2997.05C622.591 4303.09 512.433 5528.3 1325.02 5011.29C1884.75 4656.49 2489.39 3811.36 3682.83 4653.03Z" stroke="#FFE3B9" stroke-opacity="0.46" stroke-width="0.2643" stroke-miterlimit="10"/>
</svg>
